Input #0, lavfi, from 'rgbtestsrc=duration=60:size=1920x1080:rate=30':
  Duration: N/A, start: 0.000000, bitrate: N/A
  Stream #0:0: Video: rawvideo (RGBA / 0x41424752), rgba, 1920x1080 [SAR 1:1 DAR 16:9], 30 tbr, 30 tbn, 30 tbc
Stream mapping:
  Stream #0:0 -> #0:0 (rawvideo (native) -> h264 (h264_nvenc))
Press [q] to stop, [?] for help
Output #0, mp4, to './test_results/temp_tests_gpu/test_test_50_17/output.mp4':
  Metadata:
    encoder         : Lavf58.76.100
  Stream #0:0: Video: h264 (Main) (avc1 / 0x31637661), rgb0(pc, gbr/unknown/unknown, progressive), 1280x720 [SAR 1:1 DAR 16:9], q=2-31, 30 fps, 15360 tbn
    Metadata:
      encoder         : Lavc58.134.100 h264_nvenc
    Side data:
      cpb: bitrate max/min/avg: 3000000/0/0 buffer size: 4000000 vbv_delay: N/A
frame=    1 fps=0.0 q=0.0 size=       0kB time=00:00:00.00 bitrate=N/A speed=   0x    frame=    2 fps=1.5 q=0.0 size=       0kB time=00:00:00.00 bitrate=N/A speed=   0x    frame=   20 fps= 11 q=23.0 size=       0kB time=00:00:00.56 bitrate=   0.7kbits/s speed=0.308x    frame=   38 fps= 16 q=23.0 size=       0kB time=00:00:01.16 bitrate=   0.3kbits/s speed=0.495x    frame=   56 fps= 19 q=23.0 size=       0kB time=00:00:01.76 bitrate=   0.2kbits/s speed=0.612x    frame=   73 fps= 21 q=23.0 size=       0kB time=00:00:02.33 bitrate=   0.2kbits/s speed=0.686x    frame=   88 fps= 22 q=23.0 size=       0kB time=00:00:02.83 bitrate=   0.1kbits/s speed=0.72x    frame=  102 fps= 23 q=23.0 size=       0kB time=00:00:03.30 bitrate=   0.1kbits/s speed=0.742x    frame=  118 fps= 24 q=23.0 size=       0kB time=00:00:03.83 bitrate=   0.1kbits/s speed=0.772x    frame=  132 fps= 24 q=23.0 size=       0kB time=00:00:04.30 bitrate=   0.1kbits/s speed=0.779x    frame=  145 fps= 24 q=23.0 size=       0kB time=00:00:04.73 bitrate=   0.1kbits/s speed=0.783x    frame=  159 fps= 24 q=23.0 size=       0kB time=00:00:05.20 bitrate=   0.1kbits/s speed=0.792x    frame=  173 fps= 24 q=23.0 size=       0kB time=00:00:05.66 bitrate=   0.1kbits/s speed=0.801x    frame=  186 fps= 24 q=23.0 size=       0kB time=00:00:06.10 bitrate=   0.1kbits/s speed=0.801x    frame=  199 fps= 24 q=23.0 size=       0kB time=00:00:06.53 bitrate=   0.1kbits/s speed=0.803x    frame=  212 fps= 24 q=23.0 size=       0kB time=00:00:06.96 bitrate=   0.1kbits/s speed=0.805x    frame=  226 fps= 25 q=23.0 size=       0kB time=00:00:07.43 bitrate=   0.1kbits/s speed=0.81x    frame=  239 fps= 25 q=23.0 size=       0kB time=00:00:07.86 bitrate=   0.0kbits/s speed=0.808x    frame=  251 fps= 25 q=23.0 size=       0kB time=00:00:08.26 bitrate=   0.0kbits/s speed=0.808x    frame=  265 fps= 25 q=23.0 size=       0kB time=00:00:08.73 bitrate=   0.0kbits/s speed=0.813x    frame=  281 fps= 25 q=23.0 size=       0kB time=00:00:09.26 bitrate=   0.0kbits/s speed=0.822x    frame=  296 fps= 25 q=23.0 size=       0kB time=00:00:09.76 bitrate=   0.0kbits/s speed=0.828x    frame=  312 fps= 25 q=23.0 size=       0kB time=00:00:10.30 bitrate=   0.0kbits/s speed=0.836x    frame=  329 fps= 26 q=23.0 size=       0kB time=00:00:10.86 bitrate=   0.0kbits/s speed=0.847x    frame=  346 fps= 26 q=23.0 size=       0kB time=00:00:11.43 bitrate=   0.0kbits/s speed=0.856x    frame=  362 fps= 26 q=23.0 size=       0kB time=00:00:11.96 bitrate=   0.0kbits/s speed=0.863x    frame=  380 fps= 26 q=23.0 size=       0kB time=00:00:12.56 bitrate=   0.0kbits/s speed=0.874x    frame=  396 fps= 27 q=23.0 size=       0kB time=00:00:13.10 bitrate=   0.0kbits/s speed=0.88x    frame=  412 fps= 27 q=23.0 size=       0kB time=00:00:13.63 bitrate=   0.0kbits/s speed=0.884x    frame=  428 fps= 27 q=23.0 size=       0kB time=00:00:14.16 bitrate=   0.0kbits/s speed=0.889x    frame=  443 fps= 27 q=23.0 size=       0kB time=00:00:14.66 bitrate=   0.0kbits/s speed=0.892x    frame=  458 fps= 27 q=23.0 size=       0kB time=00:00:15.16 bitrate=   0.0kbits/s speed=0.895x    frame=  472 fps= 27 q=23.0 size=       0kB time=00:00:15.63 bitrate=   0.0kbits/s speed=0.895x    frame=  483 fps= 27 q=19.0 size=       0kB time=00:00:16.00 bitrate=   0.0kbits/s speed=0.891x    frame=  495 fps= 27 q=23.0 size=       0kB time=00:00:16.40 bitrate=   0.0kbits/s speed=0.888x    frame=  508 fps= 27 q=23.0 size=       0kB time=00:00:16.83 bitrate=   0.0kbits/s speed=0.887x    frame=  522 fps= 27 q=23.0 size=       0kB time=00:00:17.30 bitrate=   0.0kbits/s speed=0.888x    frame=  536 fps= 27 q=23.0 size=       0kB time=00:00:17.76 bitrate=   0.0kbits/s speed=0.889x    frame=  551 fps= 27 q=23.0 size=       0kB time=00:00:18.26 bitrate=   0.0kbits/s speed=0.891x    frame=  566 fps= 27 q=23.0 size=       0kB time=00:00:18.76 bitrate=   0.0kbits/s speed=0.893x    frame=  581 fps= 27 q=23.0 size=       0kB time=00:00:19.26 bitrate=   0.0kbits/s speed=0.895x    frame=  597 fps= 27 q=23.0 size=       0kB time=00:00:19.80 bitrate=   0.0kbits/s speed=0.898x    frame=  613 fps= 27 q=23.0 size=       0kB time=00:00:20.33 bitrate=   0.0kbits/s speed=0.902x    frame=  630 fps= 27 q=23.0 size=       0kB time=00:00:20.90 bitrate=   0.0kbits/s speed=0.906x    frame=  647 fps= 27 q=23.0 size=       0kB time=00:00:21.46 bitrate=   0.0kbits/s speed=0.91x    frame=  667 fps= 28 q=23.0 size=       0kB time=00:00:22.13 bitrate=   0.0kbits/s speed=0.918x    frame=  687 fps= 28 q=23.0 size=       0kB time=00:00:22.80 bitrate=   0.0kbits/s speed=0.926x    frame=  706 fps= 28 q=23.0 size=       0kB time=00:00:23.43 bitrate=   0.0kbits/s speed=0.932x    frame=  726 fps= 28 q=23.0 size=       0kB time=00:00:24.10 bitrate=   0.0kbits/s speed=0.939x    frame=  746 fps= 28 q=23.0 size=       0kB time=00:00:24.76 bitrate=   0.0kbits/s speed=0.946x    frame=  766 fps= 29 q=23.0 size=       0kB time=00:00:25.43 bitrate=   0.0kbits/s speed=0.953x    frame=  786 fps= 29 q=23.0 size=       0kB time=00:00:26.10 bitrate=   0.0kbits/s speed=0.959x    frame=  805 fps= 29 q=23.0 size=       0kB time=00:00:26.73 bitrate=   0.0kbits/s speed=0.965x    frame=  823 fps= 29 q=23.0 size=       0kB time=00:00:27.33 bitrate=   0.0kbits/s speed=0.969x    frame=  842 fps= 29 q=23.0 size=       0kB time=00:00:27.96 bitrate=   0.0kbits/s speed=0.973x    frame=  861 fps= 29 q=23.0 size=       0kB time=00:00:28.60 bitrate=   0.0kbits/s speed=0.977x    frame=  880 fps= 30 q=23.0 size=       0kB time=00:00:29.23 bitrate=   0.0kbits/s speed=0.981x    frame=  899 fps= 30 q=23.0 size=       0kB time=00:00:29.86 bitrate=   0.0kbits/s speed=0.986x    frame=  919 fps= 30 q=23.0 size=       0kB time=00:00:30.53 bitrate=   0.0kbits/s speed=0.991x    frame=  939 fps= 30 q=23.0 size=       0kB time=00:00:31.20 bitrate=   0.0kbits/s speed=0.996x    frame=  959 fps= 30 q=23.0 size=       0kB time=00:00:31.86 bitrate=   0.0kbits/s speed=   1x    frame=  978 fps= 30 q=23.0 size=       0kB time=00:00:32.50 bitrate=   0.0kbits/s speed=   1x    frame=  997 fps= 30 q=23.0 size=       0kB time=00:00:33.13 bitrate=   0.0kbits/s speed=1.01x    frame= 1016 fps= 30 q=23.0 size=       0kB time=00:00:33.76 bitrate=   0.0kbits/s speed=1.01x    frame= 1035 fps= 31 q=23.0 size=       0kB time=00:00:34.40 bitrate=   0.0kbits/s speed=1.01x    frame= 1054 fps= 31 q=23.0 size=       0kB time=00:00:35.03 bitrate=   0.0kbits/s speed=1.02x    frame= 1073 fps= 31 q=23.0 size=       0kB time=00:00:35.66 bitrate=   0.0kbits/s speed=1.02x    frame= 1092 fps= 31 q=23.0 size=       0kB time=00:00:36.30 bitrate=   0.0kbits/s speed=1.02x    frame= 1112 fps= 31 q=23.0 size=       0kB time=00:00:36.96 bitrate=   0.0kbits/s speed=1.03x    frame= 1132 fps= 31 q=23.0 size=       0kB time=00:00:37.63 bitrate=   0.0kbits/s speed=1.03x    frame= 1152 fps= 31 q=23.0 size=       0kB time=00:00:38.30 bitrate=   0.0kbits/s speed=1.04x    frame= 1172 fps= 31 q=23.0 size=       0kB time=00:00:38.96 bitrate=   0.0kbits/s speed=1.04x    frame= 1192 fps= 31 q=23.0 size=       0kB time=00:00:39.63 bitrate=   0.0kbits/s speed=1.04x    frame= 1212 fps= 31 q=23.0 size=       0kB time=00:00:40.30 bitrate=   0.0kbits/s speed=1.05x    frame= 1232 fps= 32 q=23.0 size=       0kB time=00:00:40.96 bitrate=   0.0kbits/s speed=1.05x    frame= 1252 fps= 32 q=23.0 size=       0kB time=00:00:41.63 bitrate=   0.0kbits/s speed=1.05x    frame= 1271 fps= 32 q=23.0 size=       0kB time=00:00:42.26 bitrate=   0.0kbits/s speed=1.06x    frame= 1291 fps= 32 q=23.0 size=       0kB time=00:00:42.93 bitrate=   0.0kbits/s speed=1.06x    frame= 1311 fps= 32 q=23.0 size=       0kB time=00:00:43.60 bitrate=   0.0kbits/s speed=1.06x    frame= 1331 fps= 32 q=23.0 size=       0kB time=00:00:44.26 bitrate=   0.0kbits/s speed=1.06x    frame= 1351 fps= 32 q=23.0 size=       0kB time=00:00:44.93 bitrate=   0.0kbits/s speed=1.07x    frame= 1370 fps= 32 q=23.0 size=       0kB time=00:00:45.56 bitrate=   0.0kbits/s speed=1.07x    frame= 1389 fps= 32 q=23.0 size=       0kB time=00:00:46.20 bitrate=   0.0kbits/s speed=1.07x    frame= 1408 fps= 32 q=23.0 size=       0kB time=00:00:46.83 bitrate=   0.0kbits/s speed=1.07x    frame= 1427 fps= 32 q=23.0 size=       0kB time=00:00:47.46 bitrate=   0.0kbits/s speed=1.08x    frame= 1446 fps= 32 q=23.0 size=       0kB time=00:00:48.10 bitrate=   0.0kbits/s speed=1.08x    frame= 1464 fps= 32 q=23.0 size=       0kB time=00:00:48.70 bitrate=   0.0kbits/s speed=1.08x    frame= 1483 fps= 32 q=23.0 size=       0kB time=00:00:49.33 bitrate=   0.0kbits/s speed=1.08x    frame= 1502 fps= 33 q=23.0 size=       0kB time=00:00:49.96 bitrate=   0.0kbits/s speed=1.08x    frame= 1521 fps= 33 q=23.0 size=       0kB time=00:00:50.60 bitrate=   0.0kbits/s speed=1.08x    frame= 1540 fps= 33 q=23.0 size=       0kB time=00:00:51.23 bitrate=   0.0kbits/s speed=1.09x    frame= 1559 fps= 33 q=23.0 size=       0kB time=00:00:51.86 bitrate=   0.0kbits/s speed=1.09x    frame= 1578 fps= 33 q=23.0 size=       0kB time=00:00:52.50 bitrate=   0.0kbits/s speed=1.09x    frame= 1597 fps= 33 q=23.0 size=       0kB time=00:00:53.13 bitrate=   0.0kbits/s speed=1.09x    frame= 1616 fps= 33 q=23.0 size=       0kB time=00:00:53.76 bitrate=   0.0kbits/s speed=1.09x    frame= 1635 fps= 33 q=23.0 size=       0kB time=00:00:54.40 bitrate=   0.0kbits/s speed=1.09x    frame= 1654 fps= 33 q=23.0 size=       0kB time=00:00:55.03 bitrate=   0.0kbits/s speed=1.09x    frame= 1673 fps= 33 q=23.0 size=       0kB time=00:00:55.66 bitrate=   0.0kbits/s speed= 1.1x    frame= 1692 fps= 33 q=23.0 size=       0kB time=00:00:56.30 bitrate=   0.0kbits/s speed= 1.1x    frame= 1711 fps= 33 q=23.0 size=       0kB time=00:00:56.93 bitrate=   0.0kbits/s speed= 1.1x    frame= 1730 fps= 33 q=23.0 size=       0kB time=00:00:57.56 bitrate=   0.0kbits/s speed= 1.1x    frame= 1749 fps= 33 q=23.0 size=       0kB time=00:00:58.20 bitrate=   0.0kbits/s speed= 1.1x    frame= 1768 fps= 33 q=23.0 size=       0kB time=00:00:58.83 bitrate=   0.0kbits/s speed= 1.1x    frame= 1787 fps= 33 q=23.0 size=       0kB time=00:00:59.46 bitrate=   0.0kbits/s speed= 1.1x    [mp4 @ 0x57a994472400] Starting second pass: moving the moov atom to the beginning of the file
frame= 1800 fps= 33 q=23.0 Lsize=     159kB time=00:00:59.96 bitrate=  21.7kbits/s speed= 1.1x    
video:151kB audio:0kB subtitle:0kB other streams:0kB global headers:0kB muxing overhead: 5.300566%
